<?xml version="1.0" encoding="UTF-8"?>
<svg width="62px" height="52px" viewBox="0 0 62 52" version="1.1" xmlns="http://www.w3.org/2000/svg" xmlns:xlink="http://www.w3.org/1999/xlink">
    <!-- Generator: Sketch 49 (51002) - http://www.bohemiancoding.com/sketch -->
    <title>if_Advertising-marketing-megaphone-startup-business_2852105</title>
    <desc>Created with Sketch.</desc>
    <defs></defs>
    <g id="Page-1" stroke="none" stroke-width="1" fill="none" fill-rule="evenodd" stroke-linejoin="round">
        <g id="rc_main" transform="translate(-164.000000, -1927.000000)" stroke="#9CA8BA" stroke-width="2">
            <g id="if_Advertising-marketing-megaphone-startup-business_2852105" transform="translate(165.000000, 1928.000000)">
                <rect id="Rectangle-path" x="53.4782609" y="0" width="6.52173913" height="39.1304348"></rect>
                <path d="M3.91304348,13.0434783 L6.52173913,13.0434783 L6.52173913,26.0869565 L3.91304348,26.0869565 C1.75192924,26.0869565 0,24.3350273 0,22.173913 L0,16.9565217 C0,14.7954075 1.75192924,13.0434783 3.91304348,13.0434783 Z" id="Shape"></path>
                <path d="M6.52173913,13.0434783 L53.4782609,2.60869565" id="Shape"></path>
                <path d="M53.4782609,36.5217391 L6.52173913,26.0869565" id="Shape"></path>
                <path d="M11.7391304,19.5652174 L11.7391304,15.6521739" id="Shape"></path>
                <path d="M16.9565217,19.5652174 L16.9565217,15.6521739" id="Shape"></path>
                <polyline id="Shape" points="14.3478261 27.3913043 14.3478261 49.5652174 6.52173913 49.5652174 6.52173913 26.0869565"></polyline>
                <path d="M23.4782609,9.13043478 L23.4782609,30" id="Shape"></path>
                <path d="M48.2608696,3.91304348 L48.2608696,26.0869565" id="Shape"></path>
                <path d="M48.2608696,28.6956522 L48.2608696,31.3043478" id="Shape"></path>
                <path d="M7.82608696,44.3478261 L14.3478261,44.3478261" id="Shape"></path>
            </g>
        </g>
    </g>
</svg>