<?xml version="1.0" encoding="UTF-8"?>
<svg width="60px" height="59px" viewBox="0 0 60 59" version="1.1" xmlns="http://www.w3.org/2000/svg" xmlns:xlink="http://www.w3.org/1999/xlink">
    <!-- Generator: Sketch 49.2 (51160) - http://www.bohemiancoding.com/sketch -->
    <title>if_006_Ecommerce_Icon_64x64_cashier-cash-Billing-machine_2945042</title>
    <desc>Created with Sketch.</desc>
    <defs>
        <linearGradient x1="0%" y1="68.2335805%" x2="100%" y2="68.2335794%" id="linearGradient-1">
            <stop stop-color="#A201F0" offset="0%"></stop>
            <stop stop-color="#454DCB" offset="100%"></stop>
        </linearGradient>
    </defs>
    <g id="Page-1" stroke="none" stroke-width="1" fill="none" fill-rule="evenodd">
        <g id="rc_main_v2" transform="translate(-782.000000, -2141.000000)" fill="url(#linearGradient-1)" fill-rule="nonzero">
            <g id="Group-30" transform="translate(498.000000, 2107.000000)">
                <g id="Solution-6">
                    <g id="if_006_Ecommerce_Icon_64x64_cashier-cash-Billing-machine_2945042" transform="translate(284.000000, 34.000000)">
                        <path d="M59.983,49.818 L55,22.908 L55,15 C55,14.4477153 54.5522847,14 54,14 L51,14 L51,12 L54,12 C54.5522847,12 55,11.5522847 55,11 L55,1 C55,0.44771525 54.5522847,0 54,0 L30,0 C29.4477153,0 29,0.44771525 29,1 L29,11 C29,11.5522847 29.4477153,12 30,12 L33,12 L33,14 L25,14 L25,7 C24.9999434,6.73480519 24.8945494,6.48049273 24.707,6.293 L21.707,3.293 C21.3165001,2.90261806 20.6834999,2.90261806 20.293,3.293 L18,5.586 L15.707,3.293 C15.3165001,2.90261806 14.6834999,2.90261806 14.293,3.293 L11.293,6.293 C11.1054506,6.48049273 11.0000566,6.73480519 11,7 L11,14 L6,14 C5.44771525,14 5,14.4477153 5,15 L5,22.908 L0.017,49.818 C0.0150203015,49.8462988 0.0150203015,49.8747012 0.017,49.903 C0.00923398261,49.9349301 0.00355530303,49.967332 0,50 L0,58 C2.22044605e-16,58.5522847 0.44771525,59 1,59 L59,59 C59.5522847,59 60,58.5522847 60,58 L60,50 C59.9955887,49.966255 59.9889069,49.9328459 59.98,49.9 C59.9828424,49.8727652 59.9838446,49.8453697 59.983,49.818 Z M31,2 L53,2 L53,10 L31,10 L31,2 Z M35,19 L35,12 L49,12 L49,19 L51,19 L51,16 L53,16 L53,22 L31,22 L31,16 L33,16 L33,19 L35,19 Z M15,5.414 L17.293,7.707 C17.6834999,8.09738194 18.3165001,8.09738194 18.707,7.707 L21,5.414 L23,7.414 L23,18 L13,18 L13,7.414 L15,5.414 Z M7,16 L11,16 L11,18 L9,18 L9,20 L27,20 L27,18 L25,18 L25,16 L29,16 L29,22 L7,22 L7,16 Z M6.832,24 L53.168,24 L57.8,49 L2.2,49 L6.832,24 Z M58,57 L2,57 L2,51 L58,51 L58,57 Z" id="Shape"></path>
                        <rect id="Rectangle-path" x="5" y="53" width="50" height="2"></rect>
                        <rect id="Rectangle-path" x="41" y="5" width="2" height="2"></rect>
                        <rect id="Rectangle-path" x="45" y="5" width="2" height="2"></rect>
                        <rect id="Rectangle-path" x="49" y="5" width="2" height="2"></rect>
                        <rect id="Rectangle-path" x="15" y="14" width="2" height="2"></rect>
                        <rect id="Rectangle-path" x="19" y="14" width="2" height="2"></rect>
                        <path d="M27,27 L21,27 C20.4477153,27 20,27.4477153 20,28 L20,34 C20,34.5522847 20.4477153,35 21,35 L27,35 C27.5522847,35 28,34.5522847 28,34 L28,28 C28,27.4477153 27.5522847,27 27,27 Z M26,33 L22,33 L22,29 L26,29 L26,33 Z" id="Shape"></path>
                        <path d="M38,27 L32,27 C31.4477153,27 31,27.4477153 31,28 L31,34 C31,34.5522847 31.4477153,35 32,35 L38,35 C38.5522847,35 39,34.5522847 39,34 L39,28 C39,27.4477153 38.5522847,27 38,27 Z M37,33 L33,33 L33,29 L37,29 L37,33 Z" id="Shape"></path>
                        <path d="M16,27 L10,27 C9.44771525,27 9,27.4477153 9,28 L9,34 C9,34.5522847 9.44771525,35 10,35 L16,35 C16.5522847,35 17,34.5522847 17,34 L17,28 C17,27.4477153 16.5522847,27 16,27 Z M15,33 L11,33 L11,29 L15,29 L15,33 Z" id="Shape"></path>
                        <path d="M27,38 L21,38 C20.4477153,38 20,38.4477153 20,39 L20,45 C20,45.5522847 20.4477153,46 21,46 L27,46 C27.5522847,46 28,45.5522847 28,45 L28,39 C28,38.4477153 27.5522847,38 27,38 Z M26,44 L22,44 L22,40 L26,40 L26,44 Z" id="Shape"></path>
                        <path d="M38,38 L32,38 C31.4477153,38 31,38.4477153 31,39 L31,45 C31,45.5522847 31.4477153,46 32,46 L38,46 C38.5522847,46 39,45.5522847 39,45 L39,39 C39,38.4477153 38.5522847,38 38,38 Z M37,44 L33,44 L33,40 L37,40 L37,44 Z" id="Shape"></path>
                        <path d="M50,27 L43,27 C42.4477153,27 42,27.4477153 42,28 L42,45 C42,45.5522847 42.4477153,46 43,46 L50,46 C50.5522847,46 51,45.5522847 51,45 L51,28 C51,27.4477153 50.5522847,27 50,27 Z M49,44 L44,44 L44,29 L49,29 L49,44 Z" id="Shape"></path>
                        <path d="M16,38 L10,38 C9.44771525,38 9,38.4477153 9,39 L9,45 C9,45.5522847 9.44771525,46 10,46 L16,46 C16.5522847,46 17,45.5522847 17,45 L17,39 C17,38.4477153 16.5522847,38 16,38 Z M15,44 L11,44 L11,40 L15,40 L15,44 Z" id="Shape"></path>
                    </g>
                </g>
            </g>
        </g>
    </g>
</svg>