<?xml version="1.0" encoding="UTF-8"?>
<svg width="60px" height="43px" viewBox="0 0 60 43" version="1.1" xmlns="http://www.w3.org/2000/svg" xmlns:xlink="http://www.w3.org/1999/xlink">
    <!-- Generator: Sketch 49 (51002) - http://www.bohemiancoding.com/sketch -->
    <title>if_Dialog-chat-message-contact_2960181</title>
    <desc>Created with Sketch.</desc>
    <defs></defs>
    <g id="Page-1" stroke="none" stroke-width="1" fill="none" fill-rule="evenodd">
        <g id="rc_main" transform="translate(-166.000000, -2177.000000)" fill="#9CA8BA" fill-rule="nonzero">
            <g id="Group-31" transform="translate(125.000000, 2135.000000)">
                <g id="Solution-1">
                    <g id="if_Dialog-chat-message-contact_2960181" transform="translate(41.000000, 42.000000)">
                        <path d="M59,9 L40,9 L40,1 C40,0.44771525 39.5522847,0 39,0 L1,0 C0.44771525,0 0,0.44771525 0,1 L0,27 C0,27.5522847 0.44771525,28 1,28 L6,28 L6,33 C6.00008635,33.4043959 6.2437275,33.7689341 6.61734544,33.923678 C6.99096338,34.0784219 7.42100575,33.9929079 7.707,33.707 L13.414,28 L20,28 L20,36 C20,36.5522847 20.4477153,37 21,37 L46.586,37 L52.293,42.707 C52.5789943,42.9929079 53.0090366,43.0784219 53.3826546,42.923678 C53.7562725,42.7689341 53.9999137,42.4043959 54,42 L54,37 L59,37 C59.5522847,37 60,36.5522847 60,36 L60,10 C60,9.44771525 59.5522847,9 59,9 Z M13,26 C12.7348052,26.0000566 12.4804927,26.1054506 12.293,26.293 L8,30.586 L8,27 C8,26.4477153 7.55228475,26 7,26 L2,26 L2,2 L38,2 L38,26 L13,26 Z M58,35 L53,35 C52.4477153,35 52,35.4477153 52,36 L52,39.586 L47.707,35.293 C47.5195073,35.1054506 47.2651948,35.0000566 47,35 L22,35 L22,28 L39,28 C39.5522847,28 40,27.5522847 40,27 L40,11 L58,11 L58,35 Z" id="Shape"></path>
                        <path d="M6,15 L14,15 C14.5522847,15 15,14.5522847 15,14 L15,6 C15,5.44771525 14.5522847,5 14,5 L6,5 C5.44771525,5 5,5.44771525 5,6 L5,14 C5,14.5522847 5.44771525,15 6,15 Z M7,7 L13,7 L13,13 L7,13 L7,7 Z" id="Shape"></path>
                        <rect id="Rectangle-path" x="18" y="5" width="2" height="2"></rect>
                        <rect id="Rectangle-path" x="18" y="9" width="17" height="2"></rect>
                        <rect id="Rectangle-path" x="22" y="5" width="13" height="2"></rect>
                        <rect id="Rectangle-path" x="18" y="13" width="17" height="2"></rect>
                        <rect id="Rectangle-path" x="5" y="17" width="30" height="2"></rect>
                        <rect id="Rectangle-path" x="43" y="14" width="12" height="2"></rect>
                        <rect id="Rectangle-path" x="43" y="18" width="12" height="2"></rect>
                        <rect id="Rectangle-path" x="43" y="22" width="12" height="2"></rect>
                        <rect id="Rectangle-path" x="43" y="26" width="12" height="2"></rect>
                        <rect id="Rectangle-path" x="25" y="30" width="30" height="2"></rect>
                        <rect id="Rectangle-path" x="5" y="21" width="26" height="2"></rect>
                    </g>
                </g>
            </g>
        </g>
    </g>
</svg>