<?xml version="1.0" encoding="UTF-8"?>
<svg width="28px" height="46px" viewBox="0 0 28 46" version="1.1" xmlns="http://www.w3.org/2000/svg" xmlns:xlink="http://www.w3.org/1999/xlink">
    <!-- Generator: Sketch 49 (51002) - http://www.bohemiancoding.com/sketch -->
    <title>Group 4</title>
    <desc>Created with Sketch.</desc>
    <defs>
        <path d="M18.8709974,26.4664983 L5.5,26.4664983 L5.5,24.5335017 L18.8709974,24.5335017 L14.1254481,19.7879524 L15.4922831,18.4211174 L22.4842235,25.4130577 L22.3972812,25.5 L22.4842235,25.5869423 L15.4922831,32.5788826 L14.1254481,31.2120476 L18.8709974,26.4664983 Z" id="path-1"></path>
        <rect id="path-2" x="13" y="9" width="2" height="4" rx="1"></rect>
    </defs>
    <g id="Page-1" stroke="none" stroke-width="1" fill="none" fill-rule="evenodd">
        <g id="rc_main" transform="translate(-668.000000, -662.000000)">
            <g id="Group-4" transform="translate(668.000000, 662.000000)">
                <rect id="Rectangle-4" stroke="#662EFF" stroke-width="2" x="1" y="1" width="26" height="44" rx="13"></rect>
                <g id="Combined-Shape" transform="translate(14.000000, 25.500000) rotate(90.000000) translate(-14.000000, -25.500000) ">
                    <use fill="#662EFF" fill-rule="evenodd" xlink:href="#path-1"></use>
                    <path stroke="#662EFF" stroke-width="1" d="M14.8325549,31.2120476 L15.4922831,31.8717759 L21.7771167,25.5869423 L21.6901744,25.5 L21.7771167,25.4130577 L15.4922831,19.1282241 L14.8325549,19.7879524 L20.0781042,25.0335017 L6,25.0335017 L6,25.9664983 L20.0781042,25.9664983 L14.8325549,31.2120476 Z M21.864059,25.5 L22.1306701,25.2333889 L22.3972812,25.5 L22.1306701,25.7666111 L21.864059,25.5 Z"></path>
                </g>
                <g id="Rectangle-29">
                    <use fill="#662EFF" fill-rule="evenodd" xlink:href="#path-2"></use>
                    <rect stroke="#662EFF" stroke-width="1" x="13.5" y="9.5" width="1" height="3" rx="0.5"></rect>
                </g>
            </g>
        </g>
    </g>
</svg>