<?xml version="1.0" encoding="UTF-8"?>
<svg width="723px" height="286px" viewBox="0 0 723 286" version="1.1" xmlns="http://www.w3.org/2000/svg" xmlns:xlink="http://www.w3.org/1999/xlink">
    <!-- Generator: Sketch 49 (51002) - http://www.bohemiancoding.com/sketch -->
    <title>Group 12</title>
    <desc>Created with Sketch.</desc>
    <defs></defs>
    <g id="Page-1" stroke="none" stroke-width="1" fill="none" fill-rule="evenodd">
        <g id="rc_main_v2" transform="translate(-364.000000, -1445.000000)" fill="#EEF1F6">
            <g id="Group-12" transform="translate(364.000000, 1445.000000)">
                <path d="M39.0902458,0.183267041 C132.9963,-0.505826481 230.285851,0.748350373 330.9589,3.9457976 C434.312322,7.22837538 537.325175,12.435001 639.997457,19.5656743 L639.997457,19.5656755 C659.611003,20.9278522 675.143815,36.6764771 676.235244,56.3069502 C677.844443,85.2500405 676.914086,115.436536 673.444173,146.866436 C669.574329,181.918851 662.722659,216.915763 652.889163,251.857173 L652.889163,251.857173 C648.339585,268.023212 633.952022,279.461414 617.176468,280.248989 C535.511082,284.082996 452.421674,286 367.908246,286 C280.494891,286 184.435077,283.949182 79.7288032,279.847546 L79.7288032,279.847547 C64.6956106,279.258655 51.34171,270.075322 45.4121826,256.248378 C31.0137351,222.672932 19.9193097,186.212284 12.1289063,146.866436 C5.12319373,111.483711 1.20912695,75.8874554 0.386705894,40.0776685 L0.386707012,40.0776685 C-0.107837768,18.544242 16.9475456,0.687043122 38.4809721,0.192498343 C38.6840362,0.187834696 38.8871336,0.184757501 39.0902458,0.183267041 Z" id="Rectangle-6"></path>
                <path d="M579.389569,281.313235 L722.347503,274.793198 C690.25785,269.632292 669.941791,264.734932 661.399325,260.101119 C652.85686,255.467306 651.109711,248.3966 656.15788,238.889002 L579.389569,281.313235 Z" id="Path-2"></path>
            </g>
        </g>
    </g>
</svg>