<?xml version="1.0" encoding="UTF-8"?>
<svg width="56px" height="60px" viewBox="0 0 56 60" version="1.1" xmlns="http://www.w3.org/2000/svg" xmlns:xlink="http://www.w3.org/1999/xlink">
    <!-- Generator: Sketch 49 (51002) - http://www.bohemiancoding.com/sketch -->
    <title>if_manager-business-man-user_2960195</title>
    <desc>Created with Sketch.</desc>
    <defs></defs>
    <g id="Page-1" stroke="none" stroke-width="1" fill="none" fill-rule="evenodd">
        <g id="rc_main" transform="translate(-913.000000, -1922.000000)" fill="#9CA8BA" fill-rule="nonzero">
            <g id="Group-31" transform="translate(871.000000, 1894.000000)">
                <g id="Solution-1">
                    <g id="if_manager-business-man-user_2960195" transform="translate(42.000000, 28.000000)">
                        <rect id="Rectangle-path" x="11" y="32" width="2" height="28"></rect>
                        <path d="M2,20.771 C1.98808534,17.0868921 4.23295878,13.7711609 7.658,12.414 L8.572,12.048 L12.754,17.066 L11.168,19.445 C10.9260916,19.8074344 10.946723,20.2847889 11.219,20.625 L27,40.35 L27,60 L29,60 L29,40.35 L44.781,20.625 C45.053277,20.2847889 45.0739084,19.8074344 44.832,19.445 L43.246,17.066 L47.428,12.048 L48.342,12.414 C51.7670412,13.7711609 54.0119147,17.0868921 54,20.771 L54,60 L56.000057,60 L56,20.771 C56.014477,16.2683532 53.2709314,12.2159201 49.085,10.557 L38.515,6.329 C36.9926429,5.72602983 35.9947566,4.25241156 36,2.615 L36,0 L34,0 L34,2.615 C34.0019519,3.60403609 34.2493474,4.57712512 34.72,5.447 L28,8.877 L21.281,5.447 C21.7507577,4.57682128 21.9977728,3.60387732 22,2.615 L22,0 L20,0 L20,2.615 C20.0052434,4.25241156 19.0073571,5.72602983 17.485,6.329 L6.915,10.557 C2.7290686,12.2159201 -0.0144770292,16.2683532 -6.77626358e-21,20.771 L-5.70169137e-05,60 L2,60 L2,20.771 Z M14.768,16.36 L10.524,11.267 L15.424,9.308 L24.861,34.474 L13.238,19.946 L14.832,17.555 C15.077668,17.1864501 15.0516263,16.7002028 14.768,16.36 Z M28,11.414 L30.892,14.307 L30.5,15.882 C30.3365874,16.5400687 29.7450528,17.001573 29.067,17 L26.933,17 C26.2549472,17.001573 25.6634126,16.5400687 25.5,15.882 L25.107,14.307 L28,11.414 Z M26.933,19 L29.166,19 L31.008,29.132 L28,37.152 L24.992,29.132 L26.834,19 L26.933,19 Z M32.377,25.481 L31.077,18.348 C31.7521232,17.8712335 32.2342191,17.1684874 32.436,16.367 L32.536,15.956 L35.013,18.433 L32.377,25.481 Z M23.458,15.956 L23.558,16.367 C23.7597809,17.1684874 24.2418768,17.8712335 24.917,18.348 L23.617,25.481 L20.975,18.433 L23.458,15.956 Z M41.232,16.356 C40.9459048,16.6971499 40.9198139,17.1863551 41.168,17.556 L42.762,19.947 L31.141,34.474 L40.578,9.308 L45.478,11.267 L41.232,16.356 Z M37.771,8.182 L38.72,8.561 L35.791,16.373 L29.679,10.261 L35.979,7.047 C36.5041941,7.52975953 37.1109479,7.91541391 37.771,8.186 L37.771,8.182 Z M18.229,8.182 C18.8917155,7.91370689 19.5012618,7.5293541 20.029,7.047 L26.329,10.261 L20.217,16.373 L17.28,8.565 L18.229,8.182 Z" id="Shape"></path>
                        <rect id="Rectangle-path" x="43" y="32" width="2" height="28"></rect>
                        <rect id="Rectangle-path" x="31" y="53" width="2" height="2"></rect>
                        <rect id="Rectangle-path" x="31" y="58" width="2" height="2"></rect>
                    </g>
                </g>
            </g>
        </g>
    </g>
</svg>