<?xml version="1.0" encoding="UTF-8"?>
<svg width="56px" height="59px" viewBox="0 0 56 59" version="1.1" xmlns="http://www.w3.org/2000/svg" xmlns:xlink="http://www.w3.org/1999/xlink">
    <!-- Generator: Sketch 49 (51002) - http://www.bohemiancoding.com/sketch -->
    <title>if_Headphone-Earphone-service-headset_2978672</title>
    <desc>Created with Sketch.</desc>
    <defs></defs>
    <g id="Page-1" stroke="none" stroke-width="1" fill="none" fill-rule="evenodd">
        <g id="rc_main" transform="translate(-541.000000, -2168.000000)" fill="#9CA8BA" fill-rule="nonzero">
            <g id="Group-31" transform="translate(498.000000, 2135.000000)">
                <g id="Solution-1">
                    <g id="if_Headphone-Earphone-service-headset_2978672" transform="translate(43.000000, 33.000000)">
                        <path d="M1,40 L4.051,40 C4.2963083,41.7176556 5.76492285,42.995082 7.5,43 L8.1,43 C8.61117175,45.5173928 10.9467344,47.2378687 13.5024961,46.9797109 C16.0582577,46.7215532 18.0025816,44.5687655 18,42 L18,28 C18.0025816,25.4312345 16.0582577,23.2784468 13.5024961,23.0202891 C10.9467344,22.7621313 8.61117175,24.4826072 8.1,27 L7.5,27 C5.76492285,27.004918 4.2963083,28.2823444 4.051,30 L2,30 L2,28 C1.99797125,20.9303185 4.88385938,14.1665972 9.989,9.276 C11.8931902,10.6697429 14.4675663,10.7173647 16.422,9.395 C19.8521176,7.12478904 23.8870744,5.94162457 28,6 C32.1134487,5.94310484 36.1484484,7.12802441 39.578,9.4 C41.5366165,10.715149 44.107291,10.6704486 46.019,9.288 C51.1178924,14.1772773 54.0004977,20.9357424 54,28 L54,30 L51.949,30 C51.7036917,28.2823444 50.2350771,27.004918 48.5,27 L47.9,27 C47.3888282,24.4826072 45.0532656,22.7621313 42.4975039,23.0202891 C39.9417423,23.2784468 37.9974184,25.4312345 38,28 L38,42 C37.9974184,44.5687655 39.9417423,46.7215532 42.4975039,46.9797109 C45.0532656,47.2378687 47.3888282,45.5173928 47.9,43 L48.5,43 C50.2350771,42.995082 51.7036917,41.7176556 51.949,40 L53.949,40 C53.4180957,48.4225763 46.4392807,54.9861367 38,55 L32.816,55 C32.3937454,53.8056491 31.2667854,53.0052514 30,53 L26,53 C24.3431458,53 23,54.3431458 23,56 C23,57.6568542 24.3431458,59 26,59 L30,59 C31.2667854,58.9947486 32.3937454,58.1943509 32.816,57 L38,57 C47.9363282,56.9884279 55.9884279,48.9363282 56,39 L56,28 C56,12.536027 43.463973,8.8817842e-16 28,0 C12.536027,-8.8817842e-16 1.77635684e-15,12.536027 0,28 L0,39 C0,39.2652165 0.10535684,39.5195704 0.292893219,39.7071068 C0.480429597,39.8946432 0.73478351,40 1,40 Z M13,25 C14.6568542,25 16,26.3431458 16,28 L16,42 C16,43.6568542 14.6568542,45 13,45 C11.3431458,45 10,43.6568542 10,42 L10,28 C10,26.3431458 11.3431458,25 13,25 Z M6,30.5 C6,29.6715729 6.67157288,29 7.5,29 L8,29 L8,41 L7.5,41 C6.67157288,41 6,40.3284271 6,39.5 L6,30.5 Z M43,45 C41.3431458,45 40,43.6568542 40,42 L40,28 C40.0000001,26.3431458 41.3431458,25.0000001 43,25.0000001 C44.6568542,25.0000001 45.9999999,26.3431458 46,28 L46,42 C46,43.6568542 44.6568542,45 43,45 Z M50,39.5 C50,40.3284271 49.3284271,41 48.5,41 L48,41 L48,29 L48.5,29 C49.3284271,29 50,29.6715729 50,30.5 L50,39.5 Z M30,57 L26,57 C25.4477153,57 25,56.5522847 25,56 C25,55.4477153 25.4477153,55 26,55 L30,55 C30.5522847,55 31,55.4477153 31,56 C31,56.5522847 30.5522847,57 30,57 Z M54,32 L54,38 L52,38 L52,32 L54,32 Z M44.468,7.9 C43.2805982,8.55716914 41.8254514,8.49541225 40.698,7.74 C36.9374813,5.24532623 32.5123754,3.94197957 28,4 C23.4872591,3.94068835 19.0614237,5.24299914 15.3,7.737 C14.1725486,8.49241225 12.7174018,8.55416914 11.53,7.897 C21.1009269,0.0344034719 34.8950731,0.0344034719 44.466,7.897 L44.468,7.9 Z M4,32 L4,38 L2,38 L2,32 L4,32 Z" id="Shape"></path>
                    </g>
                </g>
            </g>
        </g>
    </g>
</svg>